# xmcd
#
# Track frame offsets:
#	150
#	12327
#	32032
#	47785
#	62122
#	77359
#	93275
#	104264
#	115647
#	128239
#	138263
#	163727
#	180373
#	192428
#	206667
#	218937
#	237838
#	250207
#
# Disc length: 3665 seconds
#
# Revision: 4
# Processed by: cddbd v1.5.2PL0 Copyright (c) Steve Scherf et al.
# Submitted via: audiograbber 1.83.01
#
DISCID=f10e4f12
DTITLE=Willie Nelson and Sister Bobbie - December Day: Willie's Stash Vol. 1
DYEAR=2014
DGENRE=Country
TTITLE0=Alexander's Ragtime Band
TTITLE1=Permanently Lonely
TTITLE2=What'll I Do
TTITLE3=Summer Of Roses/December Day
TTITLE4=Nuages
TTITLE5=Mona Lisa
TTITLE6=I Don't Know Where I Am Today
TTITLE7=Amnesia
TTITLE8=Who'll Buy My Memories
TTITLE9=The Anniversary Song
TTITLE10=Laws Of Nature
TTITLE11=Walkin'
TTITLE12=Always
TTITLE13=I Let My Mind Wander
TTITLE14=Is The Better Part Over
TTITLE15=My Own Peculiar Way
TTITLE16=Sad Songs And Waltzes
TTITLE17=Ou-es Tu, Mon Amour/I Never Cared For You
EXTD=
EXTT0=
EXTT1=
EXTT2=
EXTT3=
EXTT4=
EXTT5=
EXTT6=
EXTT7=
EXTT8=
EXTT9=
EXTT10=
EXTT11=
EXTT12=
EXTT13=
EXTT14=
EXTT15=
EXTT16=
EXTT17=
PLAYORDER=
